name Walk9.mot
datacolumns 19
datarows 10
range 1.75500000 1.80000000
endheader

                time	   L_ground_force_vx	   L_ground_force_vy	   L_ground_force_vz	   L_ground_force_px	   L_ground_force_py	   L_ground_force_pz	   R_ground_force_vx	   R_ground_force_vy	   R_ground_force_vz	   R_ground_force_px	   R_ground_force_py	   R_ground_force_pz	   L_ground_torque_x	   L_ground_torque_y	   L_ground_torque_z	   R_ground_torque_x	   R_ground_torque_y	   R_ground_torque_z	
          1.75500000	         35.59787761	        974.46222706	         75.20867592	         -0.20480274	          0.00000000	         -0.06867689	         -0.02966263	          0.35464341	          0.02812686	          0.00024602	          0.00000000	          0.00015861	          0.00000000	          1.49105539	          0.00000000	          0.00000000	          0.00483996	          0.00000000	
          1.76000000	         37.68009756	        978.51258731	         75.78158045	         -0.20318811	          0.00000000	         -0.06873660	         -0.04049229	          0.43787137	          0.03178963	          0.00027789	          0.00000000	          0.00017783	          0.00000000	          1.53375238	          0.00000000	          0.00000000	          0.00689546	          0.00000000	
          1.76500000	         39.97021680	        982.23875455	         76.31873940	         -0.20163315	          0.00000000	         -0.06879612	         -0.05238601	          0.51365353	          0.03358072	          0.00029332	          0.00000000	          0.00018586	          0.00000000	          1.56608025	          0.00000000	          0.00000000	          0.00925037	          0.00000000	
          1.77000000	         42.48154551	        985.69697527	         76.81207762	         -0.20014797	          0.00000000	         -0.06885258	         -0.06447216	          0.56847879	          0.03223227	          0.00028120	          0.00000000	          0.00017546	          0.00000000	          1.58874603	          0.00000000	          0.00000000	          0.01178173	          0.00000000	
          1.77500000	         45.22045853	        988.93760087	         77.25776955	         -0.19873989	          0.00000000	         -0.06890260	         -0.07536784	          0.58386278	          0.02615437	          0.00022762	          0.00000000	          0.00013761	          0.00000000	          1.60333861	          0.00000000	          0.00000000	          0.01427607	          0.00000000	
          1.78000000	         48.18535805	        992.00343772	         77.65370230	         -0.19741342	          0.00000000	         -0.06894296	         -0.08306337	          0.53584560	          0.01345106	          0.00011600	          0.00000000	          0.00006162	          0.00000000	          1.61196685	          0.00000000	          0.00000000	          0.01640505	          0.00000000	
          1.78500000	         51.36695826	        994.92722756	         77.99712954	         -0.19617019	          0.00000000	         -0.06897100	         -0.08481958	          0.39488376	         -0.00801712	         -0.00007237	          0.00000000	         -0.00006449	          0.00000000	          1.61681604	          0.00000000	          0.00000000	          0.01770173	          0.00000000	
          1.79000000	         54.74906218	        997.72873026	         78.28381152	         -0.19500919	          0.00000000	         -0.06898417	         -0.07709754	          0.12637048	         -0.04050544	         -0.00035718	          0.00000000	         -0.00025318	          0.00000000	          1.62015303	          0.00000000	          0.00000000	          0.01754064	          0.00000000	
          1.79500000	         58.31062274	       1000.41809880	         78.50833718	         -0.19392783	          0.00000000	         -0.06897947	         -0.05554765	         -0.30792872	         -0.08617159	         -0.00075725	          0.00000000	         -0.00051619	          0.00000000	          1.62392694	          0.00000000	          0.00000000	          0.01512618	          0.00000000	
          1.80000000	         62.02785595	       1002.99989739	         78.66574459	         -0.19292281	          0.00000000	         -0.06895371	         -0.01509261	         -0.94718981	         -0.14675510	         -0.00128773	          0.00000000	         -0.00086268	          0.00000000	          1.62925942	          0.00000000	          0.00000000	          0.00949563	          0.00000000	
